# xmcd
#
# Track frame offsets:
#	150
#	17934
#	35784
#	55407
#	73450
#	87370
#	107269
#	126104
#	142128
#	160136
#	173790
#	189072
#	205159
#	222987
#
# Disc length: 3193 seconds
#
# Revision: 0
# Processed by: cddbd v1.5.2PL0 Copyright (c) Steve Scherf et al.
# Submitted via: EasyCDDAExtractor 16.0.4.1
#
DISCID=cf0c770e
DTITLE=Soultans - Can't Take My Hands Off You
DYEAR=2005
DGENRE=Soul
TTITLE0=Can't Take My Hands Off You
TTITLE1=Miss You
TTITLE2=A Piece Of Heaven
TTITLE3=Every Little Move
TTITLE4=For Once in My Life
TTITLE5=L.O.V.E.
TTITLE6=Gimme More Of Your Love
TTITLE7=Let's Close Our Eyes
TTITLE8=If i Cant't Have You
TTITLE9=Set Me Free
TTITLE10=You Take Me Up
TTITLE11=Rikki, Don't Lose That Number
TTITLE12=I Know
TTITLE13=Papa Was A Rolling Stone
EXTD=
EXTT0=
EXTT1=
EXTT2=
EXTT3=
EXTT4=
EXTT5=
EXTT6=
EXTT7=
EXTT8=
EXTT9=
EXTT10=
EXTT11=
EXTT12=
EXTT13=
PLAYORDER=
